<svg xmlns="http://www.w3.org/2000/svg" width="960" height="540" viewBox="0 0 960 540">
  <rect width="960" height="540" fill="#0f172a"/>
  <rect x="120" y="40" width="280" height="460" rx="28" fill="#1e293b" stroke="#38bdf8" stroke-width="3"/>
  <rect x="560" y="40" width="280" height="460" rx="28" fill="#1e293b" stroke="#22c55e" stroke-width="3"/>
  <text x="140" y="78" fill="#e2e8f0" font-family="Arial" font-size="22" font-weight="bold">EN Locale (Fallback Base)</text>
  <text x="580" y="78" fill="#e2e8f0" font-family="Arial" font-size="22" font-weight="bold">AR Locale (RTL)</text>

  <rect x="145" y="100" width="230" height="70" rx="12" fill="#334155"/>
  <text x="160" y="133" fill="#f8fafc" font-family="Arial" font-size="20">welcome_user(name)</text>
  <text x="160" y="156" fill="#93c5fd" font-family="Arial" font-size="16">Welcome, Ahmed!</text>

  <rect x="145" y="190" width="230" height="70" rx="12" fill="#334155"/>
  <text x="160" y="223" fill="#f8fafc" font-family="Arial" font-size="20">car(count: 5)</text>
  <text x="160" y="246" fill="#93c5fd" font-family="Arial" font-size="16">5 Cars</text>

  <rect x="145" y="280" width="230" height="70" rx="12" fill="#334155"/>
  <text x="160" y="313" fill="#f8fafc" font-family="Arial" font-size="20">supportedLanguages.en</text>
  <text x="160" y="336" fill="#93c5fd" font-family="Arial" font-size="16">English</text>

  <rect x="585" y="100" width="230" height="70" rx="12" fill="#334155"/>
  <text x="600" y="133" fill="#f8fafc" font-family="Arial" font-size="20">welcome_user(name)</text>
  <text x="600" y="156" fill="#86efac" font-family="Arial" font-size="16">مرحباً، أحمد!</text>

  <rect x="585" y="190" width="230" height="70" rx="12" fill="#334155"/>
  <text x="600" y="223" fill="#f8fafc" font-family="Arial" font-size="20">car(count: 5, gender)</text>
  <text x="600" y="246" fill="#86efac" font-family="Arial" font-size="16">٥ سيارات</text>

  <rect x="585" y="280" width="230" height="70" rx="12" fill="#334155"/>
  <text x="600" y="313" fill="#f8fafc" font-family="Arial" font-size="20">supportedLanguages.ar</text>
  <text x="600" y="336" fill="#86efac" font-family="Arial" font-size="16">العربية</text>

  <path d="M420 270 L540 270" stroke="#38bdf8" stroke-width="3" stroke-dasharray="8 8"/>
  <text x="430" y="255" fill="#67e8f9" font-family="Arial" font-size="16">setLocale + rebuild</text>

  <text x="300" y="500" fill="#94a3b8" font-family="Arial" font-size="16">Medium example: modular keys + fallback chain + typed API</text>
</svg>
